<svg width="48" height="38" viewBox="0 0 48 38" fill="none" xmlns="http://www.w3.org/2000/svg">
<path d="M20.304 2.61502L18.096 0.789953C17.4801 0.279883 16.7037 0.000358362 15.9017 0H3.42857C2.51926 0 1.64719 0.358737 1.00421 0.997293C0.361223 1.63585 0 2.50192 0 3.40497V30.6447C0 31.5478 0.361223 32.4139 1.00421 33.0524C1.64719 33.691 2.51926 34.0497 3.42857 34.0497H44.5714C45.4807 34.0497 46.3528 33.691 46.9958 33.0524C47.6388 32.4139 48 31.5478 48 30.6447V6.80994C48 5.90689 47.6388 5.04082 46.9958 4.40226C46.3528 3.76371 45.4807 3.40497 44.5714 3.40497H22.4983C21.6963 3.40461 20.9199 3.12509 20.304 2.61502Z" fill="#0288D1"/>
<path d="M37.7144 17.0255H32.6024L32.8424 14.1722L32.8458 14.1551C32.8053 13.322 33.0828 12.5044 33.623 11.8657C34.1631 11.227 34.926 10.8143 35.7593 10.71C36.5925 10.6057 37.4347 10.8175 38.1175 11.3031C38.8004 11.7888 39.2735 12.5124 39.4424 13.3294L41.971 10.4573C41.4779 9.47837 40.7488 8.63564 39.8486 8.00416C38.9483 7.37267 37.9048 6.97201 36.811 6.83785C35.8666 6.81063 34.9262 6.97082 34.0449 7.30903C33.1636 7.64725 32.3592 8.15668 31.6786 8.80751C30.998 9.45833 30.4551 10.2375 30.0815 11.0993C29.7079 11.9611 29.5112 12.8883 29.503 13.8265L29.2253 17.0255H24.0001V20.4305H28.9201L28.0133 30.4309C27.9629 31.1026 27.718 31.7455 27.3079 32.282C26.8979 32.8185 26.3403 33.2257 25.7024 33.4545L25.6578 33.4698C25.2168 33.6052 24.752 33.6469 24.2936 33.5922C23.8353 33.5376 23.3936 33.3878 22.9974 33.1525C22.6011 32.9173 22.2591 32.602 21.9936 32.2269C21.7281 31.8519 21.5449 31.4256 21.4561 30.9757L18.9241 33.8478C19.4208 34.8132 20.1473 35.6435 21.0406 36.2666C21.9339 36.8896 22.9669 37.2866 24.0498 37.423C24.993 37.4557 25.9332 37.3009 26.8152 36.9675C27.6972 36.6342 28.5033 36.1291 29.1859 35.482C29.8685 34.8348 30.414 34.0586 30.7902 33.1991C31.1664 32.3396 31.3658 31.414 31.3767 30.4769L32.2955 20.4305H37.7144V17.0255Z" fill="#B3E5FC"/>
<path d="M40.8398 38C39.4754 38 38.3036 37.7132 37.3242 37.1396C36.3532 36.566 35.6041 35.7514 35.0767 34.6956C34.5494 33.6399 34.2857 32.3888 34.2857 30.9423V30.9299C34.2857 29.5 34.5452 28.2531 35.0642 27.1891C35.5915 26.125 36.3365 25.302 37.2991 24.7201C38.2617 24.1299 39.3917 23.8348 40.6892 23.8348C41.995 23.8348 43.1166 24.1216 44.0541 24.6952C45 25.2605 45.7282 26.0543 46.2388 27.0768C46.7494 28.0993 47.0047 29.2964 47.0047 30.668V31.6905H35.8552V29.6081H45.4729L43.9914 31.5533V30.3189C43.9914 29.4128 43.8532 28.6604 43.577 28.0619C43.3008 27.4634 42.9157 27.0145 42.4219 26.7152C41.9364 26.416 41.3714 26.2663 40.7268 26.2663C40.0823 26.2663 39.5089 26.4243 39.0067 26.7402C38.5128 27.0477 38.1194 27.5049 37.8265 28.1118C37.5419 28.7103 37.3996 29.446 37.3996 30.3189V31.5658C37.3996 32.4054 37.5419 33.1245 37.8265 33.723C38.111 34.3132 38.5128 34.7704 39.0318 35.0946C39.5592 35.4105 40.1828 35.5685 40.9026 35.5685C41.4634 35.5685 41.9448 35.4895 42.3465 35.3316C42.7567 35.1653 43.0873 34.9699 43.3384 34.7455C43.5896 34.5127 43.7653 34.2924 43.8658 34.0846L43.9035 33.9973H46.8666L46.8415 34.1096C46.7327 34.5501 46.5318 34.999 46.2388 35.4562C45.9542 35.9051 45.565 36.3249 45.0712 36.7157C44.5857 37.098 43.9914 37.4098 43.2882 37.6509C42.5851 37.8836 41.769 38 40.8398 38Z" fill="#B3E5FC"/>
</svg>
